<svg width="34" height="35" viewBox="0 0 34 35" fill="none" xmlns="http://www.w3.org/2000/svg">
<path d="M25.4858 2.32754C24.0568 2.17148 22.6205 2.09554 21.1834 2.10004C16.4192 2.10004 13.4583 5.22379 13.4583 10.2521V13.6661H9.45626C9.2684 13.6661 9.08823 13.7429 8.95539 13.8797C8.82255 14.0164 8.74792 14.2019 8.74792 14.3953V20.0098C8.74792 20.2032 8.82255 20.3887 8.95539 20.5254C9.08823 20.6622 9.2684 20.739 9.45626 20.739H13.4583V31.9973C13.4583 32.1907 13.533 32.3762 13.6658 32.5129C13.7986 32.6497 13.9788 32.7265 14.1667 32.7265H19.8022C19.99 32.7265 20.1702 32.6497 20.303 32.5129C20.4359 32.3762 20.5105 32.1907 20.5105 31.9973V20.739H24.4998C24.6718 20.7391 24.8379 20.6748 24.9672 20.558C25.0965 20.4413 25.1802 20.2802 25.2025 20.1046L25.9066 14.49C25.9197 14.3871 25.9113 14.2825 25.882 14.1832C25.8527 14.0839 25.8031 13.9922 25.7366 13.9142C25.6701 13.8362 25.5881 13.7737 25.4963 13.7309C25.4044 13.6881 25.3048 13.666 25.2039 13.6661H20.5105V10.8092C20.5105 9.39463 20.7868 8.804 22.5052 8.804H25.3938C25.5816 8.804 25.7618 8.72718 25.8946 8.59043C26.0275 8.45369 26.1021 8.26822 26.1021 8.07483V3.05088C26.1022 2.87385 26.0397 2.70283 25.9263 2.56974C25.8129 2.43664 25.6564 2.35056 25.4858 2.32754ZM24.6854 7.34421L22.5038 7.34567C19.448 7.34567 19.0938 9.32317 19.0938 10.8092V14.3967C19.0938 14.5898 19.1683 14.7751 19.3008 14.9118C19.4333 15.0485 19.6131 15.1255 19.8008 15.1259H24.3993L23.8765 19.2821H19.8022C19.6143 19.2821 19.4341 19.3589 19.3013 19.4957C19.1685 19.6324 19.0938 19.8179 19.0938 20.0113V31.2667H14.875V20.0113C14.875 19.8179 14.8004 19.6324 14.6675 19.4957C14.5347 19.3589 14.3545 19.2821 14.1667 19.2821H10.166V15.1259H14.1667C14.3545 15.1259 14.5347 15.0491 14.6675 14.9123C14.8004 14.7756 14.875 14.5901 14.875 14.3967V10.2521C14.875 6.06088 17.2338 3.55838 21.1834 3.55838C22.6128 3.55838 23.9034 3.63858 24.6854 3.70858V7.34421Z" fill="black"/>
</svg>
