<svg width="36" height="35" viewBox="0 0 36 35" fill="none" xmlns="http://www.w3.org/2000/svg">
<path d="M18 23.3333C19.5913 23.3333 21.1174 22.7187 22.2426 21.6247C23.3679 20.5308 24 19.0471 24 17.5C24 15.9529 23.3679 14.4691 22.2426 13.3752C21.1174 12.2812 19.5913 11.6666 18 11.6666C16.4087 11.6666 14.8826 12.2812 13.7574 13.3752C12.6321 14.4691 12 15.9529 12 17.5C12 19.0471 12.6321 20.5308 13.7574 21.6247C14.8826 22.7187 16.4087 23.3333 18 23.3333Z" stroke="black" stroke-width="1.5" stroke-linecap="round" stroke-linejoin="round"/>
<path d="M4.5 23.3333V11.6667C4.5 9.7328 5.29018 7.87813 6.6967 6.51068C8.10322 5.14323 10.0109 4.375 12 4.375H24C25.9891 4.375 27.8968 5.14323 29.3033 6.51068C30.7098 7.87813 31.5 9.7328 31.5 11.6667V23.3333C31.5 25.2672 30.7098 27.1219 29.3033 28.4893C27.8968 29.8568 25.9891 30.625 24 30.625H12C10.0109 30.625 8.10322 29.8568 6.6967 28.4893C5.29018 27.1219 4.5 25.2672 4.5 23.3333Z" stroke="black" stroke-width="1.5"/>
<path d="M26.25 9.49485L26.2661 9.47766" stroke="black" stroke-width="1.5" stroke-linecap="round" stroke-linejoin="round"/>
</svg>
