<svg width="39" height="39" viewBox="0 0 39 39" fill="none" xmlns="http://www.w3.org/2000/svg">
<path d="M32.3586 8.6482C32.6651 8.65076 32.9651 8.73711 33.2261 8.89792C33.487 9.05872 33.699 9.28785 33.8391 9.56049C33.9792 9.83313 34.042 10.1389 34.0208 10.4447C33.9996 10.7505 33.8952 11.0446 33.7188 11.2953L32.0255 13.7019C31.9215 21.9667 29.1574 27.5778 23.8095 30.3809C21.2611 31.6474 18.4454 32.2823 15.6 32.2318C12.0817 32.3127 8.60492 31.4581 5.52501 29.7553C5.31782 29.6161 5.15769 29.4173 5.06573 29.1853C4.97378 28.9532 4.9543 28.6987 5.00988 28.4553C5.06192 28.2083 5.18761 27.983 5.37039 27.8089C5.55316 27.6348 5.78441 27.5203 6.03363 27.4803C8.10266 27.1914 10.1401 26.7093 12.1193 26.0406C3.25001 21.9374 5.18376 12.7139 6.02876 9.88157C6.11114 9.60038 6.26603 9.34579 6.47789 9.14338C6.68975 8.94096 6.95113 8.79783 7.23579 8.72835C7.52045 8.65887 7.81837 8.66549 8.09967 8.74755C8.38096 8.8296 8.63572 8.9842 8.83838 9.19582C11.4345 11.8709 14.8768 13.5648 18.5803 13.9896C18.5145 12.9943 18.6684 11.9968 19.0309 11.0676C19.3934 10.1384 19.9558 9.30023 20.6781 8.61245C21.9295 7.42484 23.5907 6.76547 25.3159 6.77153C27.0411 6.77758 28.6976 7.44859 29.9406 8.64495L32.3586 8.6482ZM7.34663 28.9152C10.3724 30.3322 17.4639 31.8711 23.0555 28.9412C27.8574 26.4241 30.329 21.2517 30.4021 13.5671C30.4054 13.313 30.4859 13.0659 30.6329 12.8586L32.3895 10.3593L32.3229 10.2732C31.4811 10.2618 30.6508 10.2504 29.8041 10.2732C29.474 10.2656 29.158 10.138 28.9153 9.91407C27.9798 8.96586 26.7098 8.42244 25.378 8.40056C24.0462 8.37868 22.759 8.8801 21.7929 9.79707C21.1724 10.3872 20.7086 11.1226 20.4433 11.9368C20.1781 12.751 20.1197 13.6184 20.2735 14.4608C20.3018 14.6178 20.294 14.7791 20.2506 14.9325C20.2072 15.086 20.1295 15.2275 20.0233 15.3464C19.9215 15.4664 19.7918 15.5595 19.6456 15.6176C19.4994 15.6757 19.3411 15.697 19.1848 15.6796C14.8187 15.3749 10.7192 13.468 7.67326 10.3252C6.58451 13.7019 5.20326 21.8529 13.9604 25.0558C14.1447 25.1219 14.3062 25.2394 14.426 25.3943C14.5458 25.5492 14.6188 25.7351 14.6364 25.9301C14.6562 26.1221 14.6209 26.3158 14.5345 26.4885C14.4482 26.6612 14.3144 26.8057 14.1489 26.9051C12.009 27.9486 9.71003 28.6279 7.34663 28.9152Z" fill="black"/>
</svg>
